<svg id="Layer_1" data-name="Layer 1" xmlns="http://www.w3.org/2000/svg" viewBox="0 0 400 400"><defs><style>.cls-1{fill:#e2decf;}.cls-2{fill:#495057;}</style></defs><title>hand-jewelry</title><path class="cls-1" d="M248.87,40.91C226.18,32.72,200.21,31,179,34.31,162,37,147.49,51.83,137.1,64.82,122.65,82.9,111.6,106,117.35,129.35c6,24.42,22.05,43.32,38,61.87,9.33,10.86,19.28,24.52,33.74,28.9,18.84,5.71,36.43-8,48.74-20.6a610.64,610.64,0,0,0,50-58.9c10.36-13.71,17.43-32.14,12.82-49.25C293.82,65.94,273.23,49.7,248.87,40.91Z"/><path class="cls-2" d="M387.87,321.47c-2.86-3.89-5.69-7.84-8.89-11.46a152.31,152.31,0,0,0-11.64-11.65C359.13,290.9,350.42,284,341.85,277a95.83,95.83,0,0,0-26.66-15.88,113.17,113.17,0,0,0-27.71-6.52,162.26,162.26,0,0,0-23.64-.85c-7.65.24-15.37.54-22.89,2a112.36,112.36,0,0,0-32.8,12.57c-4.77,2.68-9.19,5.89-13.87,8.71-2.32,1.39-4.69,2.72-7.08,4l0-.05c-9.18-5.56-19.19-10-29-14.33a228.82,228.82,0,0,0-36.84-13c-5.66-1.4-20.69-5.25-22,3.73a252.11,252.11,0,0,0-28.95-11.53,77.12,77.12,0,0,0-14.21-3.3c-3.3-.39-8.6-.8-10.56,2.62-1.57,2.75.12,6,1.74,8.3A62,62,0,0,0,55,262.08a183.86,183.86,0,0,0-26.92-8c-4.38-.88-8.92-1.62-13.39-1.17-4.21.42-10.48,2-11.36,6.93-.95,5.4,5.07,9.95,8.88,12.62a119.16,119.16,0,0,0,11,6.69c10.18,5.61,20.68,10.69,31.26,15.48,9.2,4.18,18.43,8.38,27.86,12,1.37.53,2.76,1.09,4.18,1.57A13.07,13.07,0,0,0,84.9,310c-13.2-2.91-26.32-6.24-39.62-8.72-8.34-1.55-17.32-3-25.77-1.76-3.89.57-9.41,2.13-11.53,5.81-1.73,3,.64,5.84,3,7.62,4.68,3.58,10.73,5.76,16.11,8.13,6.76,3,13.57,5.87,20.39,8.73,13.24,5.55,26.47,11,40.21,15.21,20.18,6.23,40.87,11.62,62,13.55,24.13,2.21,48.63-2.27,71.53-9.78,11.75-3.86,23.33-8.1,35.45-10.73,9.23-2,19.09-3.38,28.52-2,20.09,2.91,33.94,20.65,47.67,33.9,3.4,3.28,6.9,6.82,10.9,9.37a24,24,0,0,0,12.9,3.72c9.5,0,18.53-4.77,25.83-10.49,7.68-6,15-14.49,15.91-24.59C399.16,338.05,393.47,329.11,387.87,321.47ZM83.15,304.91c-3.75-1.5-7.46-3.09-11.17-4.7-10-4.33-19.77-9-29.51-13.76a280.6,280.6,0,0,1-25.84-13.94c-3.88-2.44-8.86-5.47-10.56-9.91-1.91-5,4.86-6.77,8.44-7.16a40.59,40.59,0,0,1,12.42,1,145.88,145.88,0,0,1,14.92,4c6.2,2,12.33,4.15,18.41,6.45a201.88,201.88,0,0,0,21.45,16.45,144,144,0,0,0,14.12,8.46A58.49,58.49,0,0,0,108,296.86c2.25.57,7.71,1.7,8.74-1.37,1.08-3.24-4.47-6.68-6.51-8.17a100.84,100.84,0,0,0-18.35-10.17q-14.82-6.69-30-12.54l-.89-.33a88.83,88.83,0,0,1-10-10.27c-1.41-1.75-3.61-4.29-3.32-6.7.4-3.25,6.44-2.37,8.54-2.12,10.91,1.31,21.64,5.91,31.66,10.12q5.82,2.44,11.58,5.06c1,4.47,5.72,7.82,9.26,10.24q4.65,3.18,9.41,6.2c8.45,5.38,17.19,11.17,26.61,14.72,2.21.84,5.86,2.2,7.59-.22,2.17-3-2.38-6.56-4.38-8.15-9.39-7.44-20.81-12.32-31.48-17.55-5.13-2.52-10.29-5-15.51-7.46a4.77,4.77,0,0,1,.13-.83c1-4,6.78-3.69,9.92-3.39a73.76,73.76,0,0,1,13,2.86c5.67,1.62,11.24,3.47,16.77,5.55a347.88,347.88,0,0,1,36,16c2.57,1.31,5.15,2.65,7.65,4.09-.85.43-1.68.88-2.54,1.28a148.14,148.14,0,0,1-30.55,10.18c-12.51,2.73-25.36,3.22-38,5.41-4.8.83-10.52,1.66-15.38,3.76a28.42,28.42,0,0,0-6.42,2,22.38,22.38,0,0,0-3.13,1.74C86.6,306.34,84.86,305.59,83.15,304.91Zm31-10.24c0,.12-.09.16,0,0Zm-47-25.13c2.32.92,4.63,1.85,6.94,2.81,7.55,3.12,15,6.38,22.44,9.87a71.85,71.85,0,0,1,7.3,4c3.33,2.09,7.53,4.42,9.87,7.67a6.37,6.37,0,0,0,.4.66l0,0c-.35,0-.73.18-1.09.21a14.27,14.27,0,0,1-4.12-.43,46.72,46.72,0,0,1-11.29-4.27,167.22,167.22,0,0,1-26.47-17.37C69.83,271.69,68.5,270.62,67.17,269.54Zm34.38-8.17c10.34,4.73,20.56,9.78,30.59,15.05a116,116,0,0,1,11.29,6.65,34.85,34.85,0,0,1,5.15,4.06c.59.59,1.95,2,1.72,2.67s-1.13.42-1.93.28a22.42,22.42,0,0,1-4.44-1.46,112.24,112.24,0,0,1-12.31-6.29c-7.39-4.21-14.6-8.73-21.69-13.41C107.26,267.16,103.16,264.62,101.55,261.37ZM91.29,311.52A13.18,13.18,0,0,1,97.35,306l.72-.18c4.79-1,10.08-.7,14.15,2.25,1.69,1.22,3.63,3,3.58,5.3,0,2-1.55,3.51-3.06,4.56-3.06,2.11-6.85,2.79-10.5,2.88-3.06.08-6.48-.14-9.22-1.62C89.91,317.52,89.76,314.47,91.29,311.52ZM394,353.71c-1.78,4.8-5.14,8.94-8.71,12.55a55.83,55.83,0,0,1-11,8.85c-7.84,4.65-17.8,7.58-26.55,3.66-4.33-1.95-7.86-5.44-11.28-8.65s-6.78-6.63-10.12-10c-6.71-6.73-13.55-13.49-21.5-18.76a51.47,51.47,0,0,0-24.31-8.72c-9.43-.77-19,.88-28.12,3.06-11.64,2.78-22.77,7-34.15,10.61a213.14,213.14,0,0,1-35.7,8.15,145.29,145.29,0,0,1-32.95.89A233.17,233.17,0,0,1,118,350,347.79,347.79,0,0,1,72.2,336.5c-13.82-5.3-27.48-11.07-41.06-17-4.94-2.15-9.95-4.28-14.72-6.79-1.69-.89-7.42-3.48-6-6.17,1-1.84,3.72-2.93,5.58-3.55a27.23,27.23,0,0,1,7.22-1.22c7.85-.38,15.87.95,23.56,2.47,7.49,1.48,14.93,3.17,22.36,4.87,4.78,1.09,9.54,2.21,14.32,3.28a9.14,9.14,0,0,0-.62,2,11.37,11.37,0,0,0,3.9,10.35c3.74,3.33,9,4.21,13.82,4.76,16,1.84,32.52-1.59,48.29-4.11,7.85-1.26,15.7-2.56,23.57-3.7,4.74-.68,9.88-1.93,14.69-1.61,2.34.16,4.82,2.13,6,4.39,1.94,3.83-.49,6.83-4.22,7.95-1.14.35-.66,2.15.5,1.8,3-.9,5.91-2.82,6.29-6.21a9.45,9.45,0,0,0-3.1-7.58c-3.36-3.21-7.4-2.78-11.66-2.41-14.34,1.24-28.57,4.14-42.8,6.28-6.58,1-13.18,2-19.82,2.5a107,107,0,0,1-13.4.2c-5-.25-11.11-.66-15.29-3.65-3.24-2.32-5.25-6.6-3.3-10.39a10.85,10.85,0,0,1,4-4.07c-1.75,2.42-3,5.7-1.88,8.58s3.81,4.17,6.46,4.89c6.45,1.75,15.24,1.05,20.52-3.33,2.88-2.38,4-6.06,2-9.4-2.15-3.58-6.25-5.77-10.3-6.6,1.72-.33,3.46-.61,5.19-.91,6.08-1,12.19-1.81,18.33-2.51,6-.69,12-1.38,17.91-2.49a148.18,148.18,0,0,0,16.67-4.28A121.43,121.43,0,0,0,190.33,282c9-5.22,17.28-11.39,26.73-15.84a97.81,97.81,0,0,1,33.19-9.26c6.11-.51,12.31-.7,18.44-.73,17.4-.06,35.05,2.45,50.91,9.92a87.61,87.61,0,0,1,13.31,7.77c4.13,2.94,7.95,6.32,11.87,9.53,8.33,6.83,16.69,13.65,24.42,21.15a147.39,147.39,0,0,1,18.65,22.37C393.3,334.79,397.59,344.09,394,353.71Z"/><path class="cls-2" d="M299,82.37c-3-5.65-7.78-10.28-12.5-14.53a162.87,162.87,0,0,0-16.48-13.29,206.06,206.06,0,0,0-19.33-11.93c-2.66-1.43-5.37-2.77-8.09-4.1,1.3-3.3-.52-6.93-3.41-9.66-6.86-6.45-17-8.76-26-10.23a161.52,161.52,0,0,0-27-2s-.07,0-.12,0a44.77,44.77,0,0,0-8.89,0c-3.65.24-7.29.58-10.92,1a139.23,139.23,0,0,0-23.76,4.57A88.4,88.4,0,0,0,129,27.36c-4.06,1.94-7.93,4.27-11.94,6.29A126.26,126.26,0,0,0,105.46,40c-2.79,1.8-5.45,3.79-8.11,5.77q-2.25,1.68-4.49,3.39l0,0c-16.64,12.49-41.19,29.52-34,53.73,1.92,6.46,5.76,12,10,17.18,4.75,5.72,9.72,11.29,14.57,16.92,11.09,12.86,47,51.57,52.82,57.45,5.41,5.46,10.44,10.52,15.91,15.93,5.3,5.25,10.62,10.54,16.64,15a48.42,48.42,0,0,0,8.74,5.31c1.54.68,3.69,1.21,4.91-.34s.23-5.89-.22-7.57a55.25,55.25,0,0,0-4.2-9.86c-3.74-7.68-7-15.56-10.86-23.16-7.58-14.82-16.35-28.94-24.58-43.39-2.1-3.69-4.22-7.38-6.19-11.14a34,34,0,0,0-5.65-8c-4.55-4.7-10.54-7.71-16.45-10.33-6.59-2.92-13.16-5.71-19.54-9.06-7.16-3.75-14.18-7.79-21.59-11a69.94,69.94,0,0,0-10.78-3.78.83.83,0,0,0-.45,1.6c14.69,4.94,27.2,14.32,41.24,20.64,11.07,5,24.39,9,30.73,20.28,7.75,13.69,15.52,27.38,23.16,41.13q5.79,10.38,11,21.06c3.56,7.27,7.14,14.61,10.43,22,.74,1.66,2.71,5,2,7-.79,2.12-5.28-.72-6.34-1.34-6.12-3.6-11.33-8.68-16.29-13.7s-9.8-10.28-15.09-15a206.77,206.77,0,0,1-16.25-16.85c-5.22-5.89-10.28-11.89-15.78-17.52s-11.21-11.61-16.65-17.58c-5.26-5.78-10.23-11.79-15.34-17.69-4.33-5-9-9.78-12.56-15.37S60.08,99.15,60.7,92.26c.63-7,4.31-13.54,8.68-19,6.05-7.49,13.83-13.08,21.4-18.91,1.18-.9,2.35-1.81,3.54-2.7a1.58,1.58,0,0,0,.52-.75c2.6-1.76,5.22-3.48,7.86-5.19,12.57-8.11,25.73-16.1,40-20.73,12.2-3.94,25-5.57,37.83-5.87a161.86,161.86,0,0,1,34.61,2.53c8.18,1.58,18.23,4,23.7,10.88,1.16,1.46,1.88,3.21,1.3,4.75-3.21-1.55-6.42-3.09-9.58-4.71-6.49-3.33-13.06-6.59-20.23-8.13a106.18,106.18,0,0,0-21.12-2c-7.33-.09-14.66.32-22,.88a148.64,148.64,0,0,0-23.2,3.29c-4.93,1.16-10.78,2.3-14.64,5.82-1.85,1.67-3.11,4.16-2.36,6.67.69,2.34,2.77,4,4.75,5.32,5.44,3.53,11.83,4.63,18.2,5a76.08,76.08,0,0,0-5.64,8.06,150.92,150.92,0,0,0-12.32,25.62,142.94,142.94,0,0,0-7.3,24.43,39.12,39.12,0,0,0-.91,8.42,11.08,11.08,0,0,0,4,8c3.78,3.36,9,4,13.83,3.88,6.24-.11,12.58-.61,18.78-1.21,24.83-2.38,48.81-9.83,72.76-16.42l5.85-1.61c.05.3.14.59.17.89.67,6-1.55,12.24-4,17.61A104.29,104.29,0,0,1,224,145.21c-5,6.71-9.4,13.82-13.83,20.88q-8.11,13-15.3,26.49c-3.82,7.16-7.69,14.47-10.38,22.15-.7,2-1.54,4.23-1.42,6.38.09,1.85.83,4.12,2.65,4.93s3.91-.29,5.41-1.4a61.08,61.08,0,0,0,8.56-8.15c3.8-4.14,7.54-8.32,11.27-12.51q17.23-19.32,34.35-38.73,16.85-19.06,33.73-38.1,5.13-5.75,10.32-11.42c4.25-4.63,8.4-9.55,10.76-15.45A20.75,20.75,0,0,0,299,82.37ZM254.71,48.42c12.17,7.35,23.68,15.46,33.71,25.6,4.14,4.18,8.43,9.21,9.67,15.14h0c-13.31,4-26.79,7.48-40.18,11.18q-8.55,2.37-17.08,4.78c-.36-1.28-.77-2.55-1.25-3.84-1.89-5.08-4.05-10.07-6.34-15-4.57-9.78-9.69-19.3-15.12-28.63a60.05,60.05,0,0,0-5.49-8c3.42-.41,6.84-.9,10.26-1.57,5.92-1.14,13-2.55,17.7-6.65.13-.12.21-.25.34-.38C245.57,43.37,250.22,45.71,254.71,48.42Zm-116.5-3.93c-2.63-1-5.71-2.45-7.55-4.63-2.06-2.45-.34-4.91,2-6.39,4.76-3,11.09-4.08,16.54-5.15a179.27,179.27,0,0,1,23.57-2.62c13.93-.84,29-1.49,42.36,3.1,6.91,2.37,13.25,6.1,19.77,9.32l3.32,1.63a18.06,18.06,0,0,1-3.11,1.83c-6.15,2.93-13.33,4-20,4.94-1.61.22-3.22.36-4.83.54a28.29,28.29,0,0,0-3.54-3,38.91,38.91,0,0,0-14.77-6c-10.53-2.16-22.61-1.58-32.36,3.29a27.05,27.05,0,0,0-7.16,5.4A45.86,45.86,0,0,1,138.21,44.49Zm67.7,3c-3.3.28-6.6.49-9.9.6-12.34.43-24.69-.85-37-1.23l-2.18,0a23,23,0,0,1,5.48-3.47,42.81,42.81,0,0,1,16.35-3.29C188.09,39.9,198.35,41.69,205.91,47.54Zm-5.54,68.62c-15.58,4-31.41,7.34-47.52,8.15-5.44.28-11.11,1.25-16.53.38-4.14-.67-8.59-3.35-9.43-7.31-.41-1.95,0-4.84.34-7.06a98.92,98.92,0,0,1,2.52-11,176.55,176.55,0,0,1,10-26.88c3.72-8,8-16.08,13.94-22.63l.18-.18c6.51.3,13,.51,19.53.83a245.77,245.77,0,0,0,35.29-.39c.37.38.77.7,1.11,1.09C214,56,216.9,61.81,220,67.33c2.43,4.3,4.91,8.53,7.16,12.93,2.66,5.22,5.19,10.51,7.51,15.9a77.22,77.22,0,0,1,3.73,9.61C225.77,109.33,213.1,112.87,200.37,116.16Zm91.57-8.41c-3.79,4.93-8.26,9.41-12.4,14q-15.9,17.8-31.72,35.66-17.41,19.65-34.84,39.3-6.34,7.13-12.71,14.24c-2.1,2.35-4.16,4.81-6.43,7-1,1-5.91,6.38-7.2,4.8a3.22,3.22,0,0,1-.53-2,7.64,7.64,0,0,1,.07-1,20.56,20.56,0,0,1,.82-3.29c2.33-7.37,6.13-14.37,9.71-21.18,4.68-8.88,9.72-17.57,14.85-26.2,4.33-7.3,8.85-14.52,13.82-21.41,7.1-9.82,14.75-20.65,16.3-33a22.19,22.19,0,0,0-.22-6.78l44.9-12.36c4-1.11,8.08-2.17,12.08-3.37C298.47,98,295.34,103.32,291.94,107.75Z"/><path class="cls-2" d="M43,48.31l0,0h0Z"/><path class="cls-2" d="M48.61,51.36h0S48.67,51.18,48.61,51.36Z"/><path class="cls-2" d="M51.1,47.56a5.36,5.36,0,0,0-5.57-3.27,5.79,5.79,0,0,0-5.24,4.14,7.09,7.09,0,0,0,.14,4.13c1.1,2.84,4.61,3.94,7.35,2.88a5.71,5.71,0,0,0,3.3-3.38A6.51,6.51,0,0,0,51.1,47.56ZM48.91,50.1a3.44,3.44,0,0,1-2.62,3.1c-.1,0-.46,0-.12,0-.13,0-.26,0-.38,0s-.52,0-.78,0l-.17,0-.32-.07L44.16,53l-.2-.1a3.37,3.37,0,0,1-.32-.19l-.11-.08-.27-.25-.12-.14c0-.11-.14-.21-.2-.32s0-.09-.07-.14c0-.24-.15-.48-.2-.72a2.7,2.7,0,0,1,0-.28.76.76,0,0,0,0,.15c-.19-2.15.84-4.52,3.33-4.38a3.07,3.07,0,0,1,2.81,2.16A3.45,3.45,0,0,1,48.91,50.1Z"/><path class="cls-2" d="M290.83,181l0,0h0C290.87,180.91,290.86,180.94,290.83,181Z"/><path class="cls-2" d="M296.49,184h0S296.55,183.86,296.49,184Z"/><path class="cls-2" d="M299,180.23a5.36,5.36,0,0,0-5.57-3.26,5.77,5.77,0,0,0-5.24,4.14,7.05,7.05,0,0,0,.14,4.12c1.09,2.85,4.61,4,7.35,2.88a5.66,5.66,0,0,0,3.3-3.37A6.54,6.54,0,0,0,299,180.23Zm-2.19,2.55a3.45,3.45,0,0,1-2.62,3.1c-.1,0-.46,0-.12,0l-.39,0a6.61,6.61,0,0,1-.77,0l-.17,0-.32-.08-.36-.11-.2-.1a3.37,3.37,0,0,1-.32-.19l-.11-.08-.27-.25-.12-.14c-.06-.11-.14-.21-.2-.32a.91.91,0,0,0-.07-.14c0-.24-.15-.48-.2-.72s0-.19-.05-.28,0,.1,0,.15c-.2-2.15.84-4.52,3.33-4.38a3.07,3.07,0,0,1,2.81,2.16A3.64,3.64,0,0,1,296.79,182.78Z"/><path class="cls-2" d="M339.29,101.54v0h0Z"/><path class="cls-2" d="M345,104.59h0S345,104.42,345,104.59Z"/><path class="cls-2" d="M347.44,100.79a5.36,5.36,0,0,0-5.57-3.27,5.8,5.8,0,0,0-5.24,4.14,7,7,0,0,0,.15,4.13c1.09,2.84,4.61,3.94,7.34,2.88a5.71,5.71,0,0,0,3.3-3.38A6.45,6.45,0,0,0,347.44,100.79Zm-2.19,2.54a3.43,3.43,0,0,1-2.61,3.1c-.1,0-.47,0-.13,0-.13,0-.25,0-.38,0s-.52,0-.78,0l-.16,0-.33-.07-.36-.12-.2-.1-.32-.19-.11-.08-.27-.25-.12-.14c-.05-.11-.14-.21-.2-.32l-.06-.14c0-.24-.16-.48-.21-.72a2.36,2.36,0,0,1,0-.28.76.76,0,0,0,0,.15c-.19-2.15.84-4.52,3.33-4.38a3.06,3.06,0,0,1,2.81,2.16A3.47,3.47,0,0,1,345.25,103.33Z"/><path class="cls-2" d="M66.75,168c-.52,2-.6,4-1.11,5.93a19.61,19.61,0,0,1-2.3,5.39c-2.14,3.43-5.47,5.84-8.8,8-.57.38-.75,1.43,0,1.75a22.24,22.24,0,0,1,9.1,7c2.38,3.26,2.37,7.17,3.86,10.77.48,1.15,2.57,1.19,2.43-.33a17.69,17.69,0,0,1,2.38-10.45c2.16-3.48,5.75-5.5,9.56-6.73a1.21,1.21,0,0,0,0-2.32A12.36,12.36,0,0,1,77,184.61a19.35,19.35,0,0,1-3.78-4.73,24.2,24.2,0,0,1-3.94-11.48,1.29,1.29,0,0,0-2.57,0c-.14,4.6,1.91,9.54,4.61,13.2a27.33,27.33,0,0,0,7.37,6.87,10.69,10.69,0,0,0,2.59.88V187c-4.23,1.45-8.2,3.73-10.72,7.53s-2.67,7.72-3.05,12h2.47c-.5-4.09-1.51-8.62-4-12s-6.48-5.55-10.36-7.25l-.24,1.85a21.55,21.55,0,0,0,10.15-8.35c2.27-3.54,3.91-8.64,2.87-12.83a.83.83,0,0,0-1.59,0Z"/><path class="cls-2" d="M324.17,130.64c-.52,2-.6,4-1.12,5.93a19.61,19.61,0,0,1-2.3,5.39c-2.13,3.43-5.47,5.84-8.8,8-.57.37-.74,1.43,0,1.75a22.24,22.24,0,0,1,9.1,7c2.38,3.26,2.37,7.17,3.87,10.77.47,1.15,2.56,1.19,2.42-.33a17.62,17.62,0,0,1,2.39-10.45c2.15-3.48,5.74-5.5,9.55-6.73a1.21,1.21,0,0,0,0-2.32,12.35,12.35,0,0,1-4.92-2.43,19.29,19.29,0,0,1-3.78-4.72,24.35,24.35,0,0,1-3.94-11.48,1.29,1.29,0,0,0-2.57,0c-.13,4.6,1.92,9.54,4.61,13.2a27.24,27.24,0,0,0,7.38,6.87,10.62,10.62,0,0,0,2.58.88v-2.32c-4.23,1.45-8.2,3.73-10.72,7.53s-2.67,7.72-3.05,12h2.47c-.5-4.09-1.51-8.62-4-12S316.86,151.67,313,150l-.24,1.85a21.57,21.57,0,0,0,10.16-8.35c2.26-3.54,3.91-8.64,2.86-12.83a.83.83,0,0,0-1.58,0Z"/><path class="cls-2" d="M337.43,198.64c-.77-.91-2.29-.58-3.35-.53-.81,0-1.62.1-2.43.16,0-2.54,0-5.08-.15-7.62a1,1,0,0,0-2,0c-.1,2.59-.13,5.18-.15,7.77-2.07.16-4.14.33-6.22.42a.54.54,0,0,0,0,1.08c2.07.09,4.13.09,6.2.07,0,.29,0,.59,0,.88,0,3.33-.39,6.79.64,10a.54.54,0,0,0,1,0c1-3.19.66-6.66.64-10,0-.29,0-.59,0-.88l2.41,0c1.06,0,2.59.28,3.35-.62A.52.52,0,0,0,337.43,198.64Z"/><path class="cls-2" d="M29,182.94c-.76-.91-2.29-.58-3.35-.53-.8,0-1.61.1-2.42.16,0-2.54-.06-5.08-.16-7.62a1,1,0,0,0-1.95,0c-.11,2.59-.14,5.18-.16,7.78-2.07.15-4.14.32-6.21.42a.54.54,0,0,0,0,1.08c2.06.08,4.13.08,6.2.06,0,.3,0,.59,0,.88,0,3.33-.4,6.79.63,10a.55.55,0,0,0,1.05,0c1-3.19.65-6.65.63-10,0-.29,0-.59,0-.88l2.41,0c1.07,0,2.6.28,3.35-.62A.51.51,0,0,0,29,182.94Z"/><path class="cls-2" d="M28.12,118.47s-.3,9.19-4,13.66-7.45,4.71-7.45,4.71a14.31,14.31,0,0,1,7.15,4.32c3.13,3.58,4.27,11.62,4.27,11.62s0-6.35,3.28-10.77a13.91,13.91,0,0,1,8.34-5.17s-5.61-1.19-8.24-4.86S28.12,118.47,28.12,118.47Z"/><path class="cls-2" d="M265.27,201.89s-.29,9.19-4,13.66-7.45,4.71-7.45,4.71a14.31,14.31,0,0,1,7.15,4.32c3.13,3.58,4.27,11.62,4.27,11.62s0-6.35,3.28-10.77a13.91,13.91,0,0,1,8.34-5.17s-5.61-1.19-8.24-4.86S265.27,201.89,265.27,201.89Z"/><path class="cls-2" d="M32.79,86.63c4.17,0,4.17-6.48,0-6.48s-4.18,6.48,0,6.48Z"/><path class="cls-2" d="M77.28,36.58c4.17,0,4.18-6.48,0-6.48s-4.18,6.48,0,6.48Z"/><path class="cls-2" d="M107.47,204.74h-.79a1.91,1.91,0,0,0-1,.22,2,2,0,0,0-.84.54,1.88,1.88,0,0,0-.53.83,1.92,1.92,0,0,0-.23,1l.1.69a2.52,2.52,0,0,0,.66,1.14l.53.41a2.6,2.6,0,0,0,1.31.35h.79a2,2,0,0,0,1-.22,2.65,2.65,0,0,0,1.59-2.37l-.09-.69a2.54,2.54,0,0,0-.67-1.14l-.52-.41a2.62,2.62,0,0,0-1.31-.35Z"/><path class="cls-2" d="M79.66,227.25c4.17,0,4.18-6.48,0-6.48s-4.17,6.48,0,6.48Z"/><path class="cls-2" d="M244.12,239.32c3.34,0,3.34-5.19,0-5.19s-3.34,5.19,0,5.19Z"/><path class="cls-2" d="M301.32,215.48c3.34,0,3.34-5.18,0-5.18s-3.34,5.18,0,5.18Z"/><path class="cls-2" d="M316.42,77.24c3.33,0,3.34-5.18,0-5.18s-3.34,5.18,0,5.18Z"/><path class="cls-2" d="M336.28,51c3.34,0,3.34-5.18,0-5.18s-3.34,5.18,0,5.18Z"/><path class="cls-2" d="M51.06,155.9c3.34,0,3.34-5.19,0-5.19s-3.34,5.19,0,5.19Z"/></svg>