<svg id="Layer_1" data-name="Layer 1" xmlns="http://www.w3.org/2000/svg" viewBox="0 0 110 160"><defs><style>.cls-1{fill:#fff;}.cls-2{fill:#527a65;}.cls-3{fill:#f2f0e9;}.cls-4{fill:#222221;}.cls-5{fill:#f5a82b;}</style></defs><title>logo</title><path class="cls-1" d="M58.34,3.69H51.66A47.37,47.37,0,0,0,4.29,51.06v57.88a47.37,47.37,0,0,0,47.37,47.37h6.68a47.37,47.37,0,0,0,47.37-47.37V51.06A47.37,47.37,0,0,0,58.34,3.69Z"/><path class="cls-2" d="M58.34,9.28a41.82,41.82,0,0,1,41.78,41.78v57.88a41.82,41.82,0,0,1-41.78,41.78H51.66A41.82,41.82,0,0,1,9.88,108.94V51.06A41.82,41.82,0,0,1,51.66,9.28h6.68m0-5.59H51.66A47.37,47.37,0,0,0,4.29,51.06v57.88a47.37,47.37,0,0,0,47.37,47.37h6.68a47.37,47.37,0,0,0,47.37-47.37V51.06A47.37,47.37,0,0,0,58.34,3.69Z"/><path class="cls-3" d="M58.4,14.8A35.76,35.76,0,0,1,94.12,50.52v59A35.76,35.76,0,0,1,58.4,145.2H51.6a35.76,35.76,0,0,1-35.72-35.72v-59A35.76,35.76,0,0,1,51.6,14.8h6.8"/><path class="cls-1" d="M83.78,74.43l.12.06-.13,0c-.31,1-.66,2-1,3-.42,1.2-.86,2.45-1.23,3.7-2,5.94-5.44,12-8.81,17.84C64.52,113.17,56,127.87,67.55,143.5h0c.18.27.36.57.55.87a18.37,18.37,0,0,0,1.64,2.33,124.32,124.32,0,0,1-28.35-2.52c-.76-3.14-4-11.57-8.45-21.7h0l0-.08h0c-6.21-11.24-8.41-22.5-7.15-36.55-1-8,2.62-14.85,6.07-21.47.86-1.65,1.75-3.35,2.56-5,3.15,2.88,2,6.53.9,10.38-.71,2.37-1.45,4.82-1.1,7.08.05,1.17.2,2.35.35,3.49s.29,2.23.34,3.35h0a4.86,4.86,0,0,1,0,.68,2.5,2.5,0,0,0,.22,1.28c0,.48-.14,1-.25,1.63-.31,1.72-.67,3.67.3,4.78l.27.31.1-.4c.25-1,.42-2.15.6-3.34a31.6,31.6,0,0,1,1-4.76h0l.19-.65h0c.65-1.9,1.26-3.85,1.86-5.73a99.73,99.73,0,0,1,5.16-13.92l.34-.76c3.69-7.76,5.79-16,7.61-23.71h0l.08-.27c.51-1.72,1.08-3.67,1.82-5.49l.06-.12v0c.14-.28.27-.58.4-.88a7.49,7.49,0,0,1,2-3c2.84,1.12,2.13,4.48,1.44,7.74a16.19,16.19,0,0,0-.55,4c-.13,1.76-.17,3.56-.21,5.3-.1,4.13-.2,8.39-1.41,12.43h0v.07h0l-.09.3h0l-.32,1.14c-1.88,6.62-4,14.12-2.41,20.58l.34,1.36.08-1.4c.34-5.55.73-11.85,2.6-17.57l-.05,0h.05v0c2-5.11,2.33-10.54,2.62-15.79a76.34,76.34,0,0,1,1-10.18c1,1.37,1.2,3.31,1.38,5.19a20.44,20.44,0,0,0,.48,3.17A55,55,0,0,0,62.67,51a33.49,33.49,0,0,1,1.2,8.36c-.24,2-.55,4.11-.85,6.11-.8,5.42-1.64,11-1.22,16.55,0,.32.16,1.14.57,1.23.16,0,.38,0,.54-.45l0-.1c-.47-3.64,1-6.86,2.52-10.26,1.47-3.25,3-6.61,2.65-10.32a32.44,32.44,0,0,0-.78-6.39c-.76-4-1.54-8.1.7-11.77a1.32,1.32,0,0,1,.23.37,1.35,1.35,0,0,0,.19.32c7.12,13.88,6,19,4.39,26.15a60.13,60.13,0,0,0-1.77,15.92v.08l.06.06c.09.1.38.39.67.27.45-.19.42-1.13.34-2.64a8.55,8.55,0,0,1,0-1.54c7.92-7.17,7.57-12.28,7.26-16.78-.22-3.25-.41-6.07,2.47-9.19a21.61,21.61,0,0,0,1.53,7C84.6,67.46,85.74,70.81,83.78,74.43Z"/><path class="cls-4" d="M86.52,68.4c-.39-1.36-.85-2.71-1.31-4a36.37,36.37,0,0,1-2.13-8.2v-.07l0,0a1.26,1.26,0,0,0-1.35-.47c-1.64.47-3.23,4-3.42,5.2.49,9.46,0,12.8-5.86,19.86A57.57,57.57,0,0,1,74.07,73c1.2-4.47,2.44-9.09,1.63-13.74l.18.28-.44-1.47-.17.05.15-.09a30.31,30.31,0,0,1-1.63-4.35C72.25,49,70.32,43.22,68.2,42.82a1.57,1.57,0,0,0-1.51.71l0,0c-2.09,5-1.44,8.76-.76,12.72.85,4.9,1.73,10-2.6,18,.26-2.41.69-4.83,1.1-7.17.49-2.75,1-5.59,1.23-8.42h-.15l.15,0c-.26-1-.55-3.18-.88-5.69C63.57,44.18,62.32,36.22,60,35.65c.6-2.22.42-6-1.27-7.28-.63-.48-1.74-.82-3.53.33-2.78,2.77-3.79,6.71-4.78,10.51-.27,1-.52,2-.81,3C48,50.29,45,58.06,42,65.58c-2,5.17-4.15,10.51-5.78,15.94-.77-4.4,0-7.38.73-10.53a28.53,28.53,0,0,0,1.1-8.1c-.18-1.78-1.24-5.17-3.88-5.29h-.1l-.07.08a9.83,9.83,0,0,0-1.6,2.69A11.25,11.25,0,0,1,30.87,63c-6.8,8.37-7.18,19.12-7,29.39C22.42,104,27,114.55,31.49,123.53c3.89,10.07,8.79,21.88,9.78,22a.26.26,0,0,0,.25-.1c.53-.7-3.15-10.57-8.57-23h0l0-.08h0c-6.21-11.24-8.41-22.5-7.15-36.55-1-8,2.62-14.85,6.07-21.47.86-1.65,1.75-3.35,2.56-5,3.15,2.88,2,6.53.9,10.38-.71,2.37-1.45,4.82-1.1,7.08.05,1.17.2,2.35.35,3.49s.29,2.23.34,3.35h0a4.86,4.86,0,0,1,0,.68,2.5,2.5,0,0,0,.22,1.28c0,.48-.14,1-.25,1.63-.31,1.72-.67,3.67.3,4.78l.27.31.1-.4c.25-1,.42-2.15.6-3.34a31.6,31.6,0,0,1,1-4.76h0l.19-.65h0c.65-1.9,1.26-3.85,1.86-5.73a99.73,99.73,0,0,1,5.16-13.92l.34-.76c3.69-7.76,5.79-16,7.61-23.71h0l.08-.27c.51-1.72,1.08-3.67,1.82-5.49l.06-.12v0c.14-.28.27-.58.4-.88a7.49,7.49,0,0,1,2-3c2.84,1.12,2.13,4.48,1.44,7.74a16.19,16.19,0,0,0-.55,4c-.13,1.76-.17,3.56-.21,5.3-.1,4.13-.2,8.39-1.41,12.43h0v.07h0l-.09.3h0l-.32,1.14c-1.88,6.62-4,14.12-2.41,20.58l.34,1.36.08-1.4c.34-5.55.73-11.85,2.6-17.57l-.05,0h.05v0c2-5.11,2.33-10.54,2.62-15.79a76.34,76.34,0,0,1,1-10.18c1,1.37,1.2,3.31,1.38,5.19a20.44,20.44,0,0,0,.48,3.17A55,55,0,0,0,62.67,51a33.49,33.49,0,0,1,1.2,8.36c-.24,2-.55,4.11-.85,6.11-.8,5.42-1.64,11-1.22,16.55,0,.32.16,1.14.57,1.23.16,0,.38,0,.54-.45l0-.1c-.47-3.64,1-6.86,2.52-10.26,1.47-3.25,3-6.61,2.65-10.32a32.44,32.44,0,0,0-.78-6.39c-.76-4-1.54-8.1.7-11.77a1.32,1.32,0,0,1,.23.37,1.35,1.35,0,0,0,.19.32c7.12,13.88,6,19,4.39,26.15a60.13,60.13,0,0,0-1.77,15.92v.08l.06.06c.09.1.38.39.67.27.45-.19.42-1.13.34-2.64a8.55,8.55,0,0,1,0-1.54c7.92-7.17,7.57-12.28,7.26-16.78-.22-3.25-.41-6.07,2.47-9.19a21.61,21.61,0,0,0,1.53,7c1.21,3.55,2.35,6.9.39,10.52l.12.06-.13,0c-.31,1-.66,2-1,3-.42,1.2-.86,2.45-1.23,3.7-2,5.94-5.44,12-8.81,17.84C64.52,113.17,56,127.87,67.55,143.5h0c.18.27.36.57.55.87A9.88,9.88,0,0,0,71,147.73l.6.35-.3-.63a20.62,20.62,0,0,0-1.63-2.62,18.28,18.28,0,0,1-1.94-3.24h0c-3-5.76-5.94-14.34-2.93-22.47h0V119l-.2-.06v0h.07l.14,0,0-.07A72.2,72.2,0,0,1,72.56,102h0l.71-1.13c.35-.54.71-1.11,1-1.67,3.72-5.33,7.39-11.2,9.06-18,.34-1.13.74-2.27,1.13-3.37a37.85,37.85,0,0,0,2-7.45A4,4,0,0,0,86.52,68.4Z"/><path class="cls-5" d="M55.75,64.59a.23.23,0,0,0-.33.31c-.71,4.12-7.21,3.48-10.28,2.55-4.91-1.56-.72-5.75-3.49-3.24C39.32,70.88,58.88,71.51,55.75,64.59Z"/><path class="cls-5" d="M57.84,58.19c-.36-.34-.49.15-.52.44-.7,4.13-17.07,5-12.2-.09.88-.94-2.43-.18-2.24,1.87C43.69,65.57,59.15,64,57.84,58.19Z"/><path class="cls-5" d="M46.39,56c3.18,1.65,7.63-.8,8.56-4.13,1.54.38,1.95-2.3.46-2.57-1.14-.21-1.76,1.53-1.07,2.28-1.25,3.09-10.57,6.1-6.91.33C46.09,51.68,44.77,55,46.39,56Z"/><path class="cls-5" d="M54.43,69.72l-.06.31v0C53.59,74.86,47,72.59,45,76.23c-.9.51-1.07,2.23,0,2.61,1.5.48,2.86-1.36,1.4-2.37,1.73-1.77,4.68-1.06,6.62-2.55C54.38,73.14,55.45,70.69,54.43,69.72Z"/><path class="cls-5" d="M74.77,70.24a.2.2,0,0,0-.32.24s0,0,0,0c0,1.47-1.78,2.13-3,2.37a1.75,1.75,0,0,0-3.14-.24C66.58,72.17,65,70.7,65.54,69c-2.36,1.57.25,4.3,2.2,4.76-.34,2.3,3.31,2.46,3.71.38C73.24,74,75.68,72.25,74.77,70.24Z"/><path class="cls-5" d="M76.27,64.64c-.1-.45-.79-.45-.59.08-1.21,3.1-7.22,2.87-9.08.79-.24-.58,1.14-1.45.38-1.65-6.71,4.11,10,7,9.32.91v0C76.29,64.74,76.29,64.69,76.27,64.64Z"/><path class="cls-5" d="M37,76.22a1.56,1.56,0,0,0-.74-.82h0c-.3-.22-.73.17-.4.43h0v0h0L36,76l0,0c.43,3.79-13.39,6.77-11.33,1.67-3.32,2,.68,4.39,3.09,4C30.76,81.66,37.42,80.11,37,76.22Z"/></svg>