<svg version="1.1" id="Layer_1" xmlns="http://www.w3.org/2000/svg" xmlns:xlink="http://www.w3.org/1999/xlink" x="0px" y="0px"
	 viewBox="0 0 16 16" style="enable-background:new 0 0 16 16;" xml:space="preserve">
<style type="text/css">
	.st0{fill:#F8F8F8;stroke:#F8F8F8;stroke-width:0.25;stroke-miterlimit:10;}
</style>
<path class="st0" d="M0.5,1c0-0.3,0.2-0.5,0.5-0.5h1.5c0.2,0,0.4,0.2,0.5,0.4l0.4,1.6H15c0.3,0,0.5,0.2,0.5,0.5c0,0,0,0.1,0,0.1
	l-1.5,8c0,0.2-0.3,0.4-0.5,0.4h-9c-0.2,0-0.4-0.2-0.5-0.4l-1.5-8L2.1,1.5H1C0.7,1.5,0.5,1.3,0.5,1 M3.6,3.5l1.3,7h8.2l1.3-7H3.6z
	 M5.5,11.5c-1.1,0-2,0.9-2,2s0.9,2,2,2s2-0.9,2-2S6.6,11.5,5.5,11.5 M12.5,11.5c-1.1,0-2,0.9-2,2s0.9,2,2,2s2-0.9,2-2
	S13.6,11.5,12.5,11.5 M5.5,12.5c0.6,0,1,0.4,1,1s-0.4,1-1,1s-1-0.4-1-1S4.9,12.5,5.5,12.5 M12.5,12.5c0.6,0,1,0.4,1,1s-0.4,1-1,1
	s-1-0.4-1-1S11.9,12.5,12.5,12.5"/>
</svg>
