<svg id="Layer_1" data-name="Layer 1" xmlns="http://www.w3.org/2000/svg" viewBox="0 0 120 120"><defs><style>.cls-1{fill:#fff;}.cls-2{fill:#476b58;}</style></defs><title>Artboard 1</title><rect class="cls-1" x="-30.74" y="-30.74" width="181.48" height="181.48"/><g id="D_-_508_Diamond_jewel_present" data-name="D - 508, Diamond, jewel, present"><path class="cls-2" d="M113,48.39l-.36-.37c-32.49-26.13-30.49-24.68-31-24.86a1.39,1.39,0,0,0-.91-.18H37a1.43,1.43,0,0,0-.91.36C3.38,49.66,5.37,48,5.19,48.2a2.23,2.23,0,0,0,0,2.91c.18.18,51.36,60.61,52.27,61.52a2.23,2.23,0,0,0,3.45,0S113,51.11,113.17,51.11a1.36,1.36,0,0,0,.37-.91A2.8,2.8,0,0,0,113,48.39ZM46.75,52H71.61L59.09,101ZM63.27,27.52H77.79l-4,16.15Zm7.62,20H47.48L59.27,29.33ZM44.57,43.67,40.4,27.52H54.92ZM82.14,29.15,105,47.48H77.42Zm-45.91,0,4.71,18.33H13.36ZM42,52l12.89,50.64L11.91,52Zm21.42,50.82L76.33,52h30.13Z"/><path class="cls-2" d="M59.09,18.44a2.4,2.4,0,0,0,2.36-2.36V6.83a2.36,2.36,0,1,0-4.72,0v9.25A2.54,2.54,0,0,0,59.09,18.44Z"/><path class="cls-2" d="M71.8,18.44a2.22,2.22,0,0,0,1.81-.91L80,8.82a2.1,2.1,0,0,0-.54-3.08,2.12,2.12,0,0,0-3.09.54L70,15A2.19,2.19,0,0,0,71.8,18.44Z"/><path class="cls-2" d="M43.67,17.35a2.22,2.22,0,0,0,1.81.91,2.3,2.3,0,0,0,1.82-3.63L40.94,5.92a2.14,2.14,0,0,0-3.08-.55,2.15,2.15,0,0,0-.55,3.09Z"/></g></svg>