<svg width="24" height="24" viewBox="0 0 24 24" fill="none" xmlns="http://www.w3.org/2000/svg"><path fill-rule="evenodd" clip-rule="evenodd" d="M10.3064 3.97269V17.5904H6.92962C6.67373 17.5904 6.42833 17.4879 6.24739 17.3055C6.06646 17.1231 5.96481 16.8757 5.96481 16.6177V4.94539C5.96481 4.68741 6.06646 4.44001 6.24739 4.25759C6.42833 4.07517 6.67373 3.97269 6.92962 3.97269H10.3064ZM11.7537 17.5904H11.2713V3.97269H11.7537V17.5904ZM12.8632 17.5904H12.7185V3.97269H12.8632C13.1191 3.97269 13.3645 4.07517 13.5454 4.25759C13.7263 4.44001 13.828 4.68741 13.828 4.94539V16.6177C13.8306 16.7471 13.8075 16.8757 13.7602 16.9959C13.7128 17.1162 13.6422 17.2257 13.5523 17.3181C13.4625 17.4105 13.3552 17.4839 13.2369 17.534C13.1186 17.5841 12.9915 17.6099 12.8632 17.6099V17.5904ZM5 4.94539C5 4.42944 5.2033 3.93462 5.56517 3.56979C5.92705 3.20496 6.41785 3 6.92962 3H12.8632C13.375 3 13.8658 3.20496 14.2276 3.56979C14.5895 3.93462 14.7928 4.42944 14.7928 4.94539V5.83054L17.1276 6.1418C17.6997 6.23082 18.2142 6.54258 18.5606 7.01005C18.907 7.47752 19.0576 8.06337 18.9801 8.64163L17.7162 19.0397C17.6874 19.3274 17.6021 19.6064 17.4653 19.8606C17.3285 20.1147 17.1429 20.3388 16.9193 20.5199C16.6957 20.7009 16.4386 20.8353 16.1629 20.9152C15.8873 20.9951 15.5986 21.0189 15.3138 20.9851L10.2486 20.3042C9.80878 20.2403 9.39904 20.0419 9.07468 19.7358C8.75031 19.4296 8.52694 19.0305 8.43472 18.5923H6.92962C6.41785 18.5923 5.92705 18.3873 5.56517 18.0225C5.2033 17.6577 5 17.1629 5 16.6469V4.94539ZM9.44777 18.5631C9.52736 18.7636 9.65887 18.9389 9.82858 19.0706C9.9983 19.2024 10.2 19.2858 10.4126 19.3121L15.4778 19.993C15.6356 20.0091 15.795 19.9937 15.9468 19.9477C16.0987 19.9016 16.2401 19.8258 16.3628 19.7246C16.4856 19.6235 16.5874 19.4988 16.6623 19.358C16.7373 19.2171 16.7839 19.0626 16.7996 18.9036L18.0539 8.47627C18.1012 8.1529 18.0204 7.82374 17.8291 7.55986C17.6377 7.29598 17.3511 7.11855 17.0312 7.06586L14.7928 6.80324V16.6372C14.7928 17.1531 14.5895 17.6479 14.2276 18.0128C13.8658 18.3776 13.375 18.5826 12.8632 18.5826L9.44777 18.5631Z" fill="#495057"></path></svg>