<svg width="24" height="24" viewBox="0 0 24 24" fill="none" xmlns="http://www.w3.org/2000/svg"><path d="M18.8503 4.87273L18.3713 5.06667L18.8503 4.87273C18.6587 4.38788 18.1796 4 17.7006 4H6.87425V4.48485V4C6.39521 4 5.91617 4.29091 5.72455 4.67879C5.43713 5.26061 5.1497 6.03636 4.86228 6.71515C4.57485 7.39394 4.28743 8.07273 4 8.65455V9.13939V18.1576C4 19.2242 4.86228 20 5.82036 20H18.1796C19.2335 20 20 19.1273 20 18.1576V9.13939V8.65455L18.8503 4.87273ZM17.7006 5.06667V4.9697V5.06667C17.7964 5.06667 17.8922 5.16364 17.988 5.26061L19.0419 8.65455H13.6766V5.06667H17.7006ZM11.7605 5.06667H12.7186V8.65455H11.7605V5.06667ZM6.87425 4.9697H10.8024V8.55758H5.1497C5.34132 8.07273 5.62874 7.58788 5.82036 7.00606C6.10778 6.32727 6.39521 5.64848 6.68263 5.06667C6.68263 4.9697 6.77844 4.9697 6.87425 4.9697ZM10.3234 14.1818C10.515 14.3758 10.8024 14.3758 10.994 14.1818C11.1856 13.9879 11.1856 13.697 10.994 13.503L10.4192 12.9212H15.2096C16.0719 12.9212 16.7425 13.6 16.7425 14.4727C16.7425 15.3455 16.0719 16.0242 15.2096 16.0242H4.95808V9.62424H19.1377V18.1576C19.1377 18.6424 18.7545 19.0303 18.2754 19.0303H5.91617C5.43713 19.0303 5.05389 18.6424 5.05389 18.1576V17.0909H15.3054H15.497C16.8383 16.9939 17.7964 15.9273 17.7964 14.5697C17.7964 13.3091 16.8383 12.2424 15.5928 12.0485C15.5928 12.0485 15.5928 12.0485 15.497 12.0485H15.3054H10.4192L10.994 11.4667C11.1856 11.2727 11.1856 10.8848 10.994 10.6909C10.8024 10.497 10.515 10.497 10.3234 10.6909L8.88623 12.1455L8.5988 12.4364" fill="#495057"></path></svg>