<svg width="24" height="24" viewBox="0 0 24 24" fill="none" xmlns="http://www.w3.org/2000/svg"><path d="M21.5021 11.1116H15.2298C14.949 11.1116 14.7617 11.2988 14.7617 11.5797C14.7617 11.8605 14.949 12.0477 15.2298 12.0477H21.5021C21.783 12.0477 21.9702 11.8605 21.9702 11.5797C21.9702 11.2988 21.783 11.1116 21.5021 11.1116Z" fill="#495057"></path><path d="M19.7234 12.6079C19.4426 12.6079 19.2553 12.795 19.2553 13.0755V15.3201C19.2553 15.6007 18.9745 15.8813 18.6936 15.8813H18.0383C17.8511 14.759 16.9149 13.9173 15.7915 13.9173C14.6681 13.9173 13.8255 14.6655 13.5447 15.6942H8.39574C8.11489 14.6655 7.27234 13.9173 6.14894 13.9173C5.02553 13.9173 4.18298 14.6655 3.90213 15.6942H2.49787C2.21702 15.6942 1.93617 15.4137 1.93617 15.2266V12.2338C1.93617 12.0468 1.93617 11.8597 2.02979 11.6727L4.8383 8.77338C5.02553 8.67986 5.21277 8.58633 5.30638 8.58633H6.24255V9.89568C6.24255 10.1763 6.5234 10.3633 6.71064 10.3633C6.99149 10.3633 7.17872 10.1763 7.17872 9.89568V6.90288C7.17872 6.6223 7.36596 6.43525 7.55319 6.43525H18.9745C19.1617 6.43525 19.3489 6.6223 19.3489 6.90288V8.39928C19.3489 8.67986 19.5362 8.86691 19.817 8.86691C20.0979 8.86691 20.2851 8.67986 20.2851 8.39928V6.90288C20.2851 6.15468 19.7234 5.5 18.9745 5.5H7.55319C6.80426 5.5 6.24255 6.15468 6.24255 6.90288V7.7446H5.30638C4.8383 7.7446 4.46383 7.93165 4.18298 8.21223L1.28085 11.1115C1 11.4856 1 11.9532 1 12.1403V15.1331C1 15.9748 1.65532 16.536 2.49787 16.536H3.90213C4.08936 17.6583 5.02553 18.5 6.14894 18.5C7.27234 18.5 8.20851 17.6583 8.39574 16.536H13.4511C13.6383 17.6583 14.5745 18.5 15.6979 18.5C16.8213 18.5 17.6638 17.7518 17.9447 16.723H18.6936C19.5362 16.723 20.1915 16.0683 20.1915 15.2266V12.982C20.1915 12.795 20.0043 12.6079 19.7234 12.6079ZM6.14894 17.6583C5.4 17.6583 4.8383 17.0036 4.8383 16.2554C4.8383 15.5072 5.49362 14.8525 6.14894 14.8525C6.89787 14.8525 7.45957 15.5072 7.45957 16.2554C7.45957 17.0036 6.89787 17.6583 6.14894 17.6583ZM15.7915 17.6583C15.0426 17.6583 14.4809 17.0036 14.4809 16.2554C14.4809 15.5072 15.1362 14.8525 15.7915 14.8525C16.5404 14.8525 17.1021 15.5072 17.1021 16.2554C17.1021 17.0036 16.5404 17.6583 15.7915 17.6583Z" fill="#495057"></path><path d="M22.5319 9.42798H18.2255C17.9447 9.42798 17.7574 9.61521 17.7574 9.89606C17.7574 10.1769 17.9447 10.3641 18.2255 10.3641H22.5319C22.8128 10.3641 23 10.1769 23 9.89606C23 9.70883 22.8128 9.42798 22.5319 9.42798Z" fill="#495057"></path></svg>