<svg width="24" height="24" viewBox="0 0 24 24" fill="none" xmlns="http://www.w3.org/2000/svg"><path d="M10.1036 11.8267C9.90825 11.6344 9.59167 11.6344 9.39641 11.8267C9.20114 12.0191 9.20114 12.331 9.39641 12.5235L10.1036 11.8267ZM11.625 14.0224L11.2714 14.3708L11.6872 14.7804L12.0308 14.3103L11.625 14.0224ZM15.4058 9.69192C15.5671 9.47113 15.5163 9.16327 15.2922 9.0043C15.0681 8.84533 14.7556 8.89545 14.5942 9.11624L15.4058 9.69192ZM12 20.4881L11.8641 20.9622L12 21L12.1359 20.9622L12 20.4881ZM19.4909 7.93413L19.9828 8.0228V8.02274L19.4909 7.93413ZM19.0303 7.30122L18.968 7.79L18.9688 7.7901L19.0303 7.30122ZM12.4927 3.6788L12.1589 4.04554L12.1591 4.04578L12.4927 3.6788ZM11.5073 3.6788L11.8409 4.04578L11.8411 4.04554L11.5073 3.6788ZM4.96967 7.30122L5.03117 7.7901L5.03196 7.79L4.96967 7.30122ZM4.50902 7.93413L4.01718 8.02274L4.01719 8.0228L4.50902 7.93413ZM9.39641 12.5235L11.2714 14.3708L11.9786 13.674L10.1036 11.8267L9.39641 12.5235ZM12.0308 14.3103L15.4058 9.69192L14.5942 9.11624L11.2192 13.7345L12.0308 14.3103ZM12.1359 20.9622C14.9173 20.188 16.7595 17.4509 17.9482 14.7692C19.1515 12.0545 19.759 9.22757 19.9828 8.0228L18.9991 7.84547C18.7808 9.02112 18.1899 11.7622 17.0318 14.3749C15.859 17.0207 14.1767 19.3703 11.8641 20.014L12.1359 20.9622ZM19.9828 8.02274C20.0872 7.46017 19.7028 6.88695 19.0918 6.81234L18.9688 7.7901C18.9732 7.79064 18.976 7.79177 18.9784 7.79327C18.9814 7.79506 18.9855 7.79844 18.9896 7.80414C18.9984 7.81627 19.0017 7.83124 18.9991 7.84553L19.9828 8.02274ZM19.0926 6.81243C17.9279 6.66834 16.6506 6.05822 15.497 5.32958C14.3531 4.60711 13.3785 3.79909 12.8263 3.31182L12.1591 4.04578C12.7332 4.55226 13.7518 5.39764 14.9573 6.15903C16.1531 6.91425 17.5814 7.61846 18.968 7.79L19.0926 6.81243ZM12.8265 3.31206C12.3556 2.89598 11.6444 2.89598 11.1735 3.31206L11.8411 4.04554C11.9321 3.96515 12.0679 3.96515 12.1589 4.04554L12.8265 3.31206ZM11.1737 3.31182C10.6215 3.79909 9.64688 4.60711 8.50298 5.32958C7.34933 6.05822 6.07206 6.66834 4.90737 6.81243L5.03196 7.79C6.41852 7.61846 7.84691 6.91425 9.04266 6.15903C10.2482 5.39764 11.2668 4.55226 11.8409 4.04578L11.1737 3.31182ZM4.90816 6.81234C4.29712 6.88695 3.91277 7.46017 4.01718 8.02274L5.00087 7.84553C4.99822 7.83124 5.0016 7.81627 5.01033 7.80414C5.01443 7.79844 5.01857 7.79506 5.02153 7.79327C5.024 7.79177 5.02672 7.79064 5.03117 7.7901L4.90816 6.81234ZM4.01719 8.0228C4.24093 9.22757 4.84847 12.0545 6.05179 14.7692C7.24045 17.4509 9.08263 20.188 11.8641 20.9622L12.1359 20.014C9.82322 19.3703 8.14097 17.0207 6.9682 14.3749C5.81009 11.7622 5.21919 9.02112 5.00086 7.84547L4.01719 8.0228Z" fill="#495057"></path></svg>